<svg xmlns="http://www.w3.org/2000/svg" viewBox="0 0 112.87 20"><defs><style>.cls-1{fill:#fff;}</style></defs><g id="Layer_2" data-name="Layer 2"><g id="Layer_1-2" data-name="Layer 1"><path class="cls-1" d="M6.74,20V10.88H9.8l.46-3.56H6.74V5.05C6.74,4,7,3.32,8.5,3.32h1.89V.14A25.2,25.2,0,0,0,7.64,0C4.93,0,3.07,1.66,3.07,4.7V7.32H0v3.56H3.07V20Z"/><path class="cls-1" d="M64.14,2.16a9.36,9.36,0,0,1-2.6.7,4.48,4.48,0,0,0,2-2.51,9,9,0,0,1-2.87,1.11A4.52,4.52,0,0,0,53,5.59a12.85,12.85,0,0,1-5.15-1.37A12.86,12.86,0,0,1,43.67.85a4.62,4.62,0,0,0-.61,2.29,4.53,4.53,0,0,0,2,3.77,4.43,4.43,0,0,1-2-.56V6.4a4.52,4.52,0,0,0,3.63,4.42,4.13,4.13,0,0,1-1.21.19,4.8,4.8,0,0,1-.85-.08,4.51,4.51,0,0,0,1.61,2.25,4.44,4.44,0,0,0,2.6.89A9,9,0,0,1,43.24,16a8,8,0,0,1-1.1-.07A12.8,12.8,0,0,0,61,10.05a12.77,12.77,0,0,0,1-5V4.5a9.41,9.41,0,0,0,2.2-2.34Z"/><path class="cls-1" d="M112.86,7.34a9.76,9.76,0,0,0-1.07-4.8,3.53,3.53,0,0,0-2-1.17A96,96,0,0,0,99.87,1,95.17,95.17,0,0,0,90,1.36a3.43,3.43,0,0,0-1.72.86c-1.07,1-1.19,2.62-1.3,4a52.71,52.71,0,0,0,0,7.54,10.94,10.94,0,0,0,.35,2.33,3.62,3.62,0,0,0,.84,1.58A3.43,3.43,0,0,0,90,18.6a54.66,54.66,0,0,0,7.68.38c4.13.06,7.76,0,12-.33a3.42,3.42,0,0,0,1.81-.9,2.91,2.91,0,0,0,.72-1.17,12.31,12.31,0,0,0,.62-3.95C112.86,12,112.86,8,112.86,7.34Zm-15.66,6V6.12l7,3.62C102.23,10.81,99.65,12,97.2,13.32Z"/></g></g></svg>